<svg xmlns="http://www.w3.org/2000/svg" width="1200" height="675" viewBox="0 0 1200 675" role="img" aria-label="Terlalu Banyak Aplikasi Produktivitas? Gunakan Aturan Satu Fungsi Satu Alat"><defs><linearGradient id="bg" x1="0" y1="0" x2="1" y2="1"><stop offset="0" stop-color="#0b1220"/><stop offset=".58" stop-color="#172033"/><stop offset="1" stop-color="#263244"/></linearGradient><radialGradient id="glow" cx=".75" cy=".18" r=".75"><stop offset="0" stop-color="#f97316" stop-opacity=".38"/><stop offset="1" stop-color="#f97316" stop-opacity="0"/></radialGradient></defs><rect width="1200" height="675" fill="url(#bg)"/><rect width="1200" height="675" fill="url(#glow)"/><circle cx="1105" cy="50" r="220" fill="#f97316" opacity=".08"/><circle cx="760" cy="690" r="260" fill="#fff" opacity=".035"/><rect x="86" y="86" width="260" height="48" rx="24" fill="#f97316" opacity=".16" stroke="#fb923c" stroke-opacity=".55"/><text x="110" y="118" font-family="Arial,sans-serif" font-size="21" font-weight="700" fill="#fed7aa">Aplikasi &amp; Produktivitas</text><text x="86" y="194" font-family="Arial,sans-serif" font-size="20" font-weight="700" letter-spacing="2" fill="#94a3b8">TEKNOPRAKTIS · DECISION-GUIDE</text><text x="86" y="250" font-family="Arial,sans-serif" font-size="54" font-weight="800" letter-spacing="-1.5" fill="#fff">Terlalu Banyak Aplikasi</text>
<text x="86" y="316" font-family="Arial,sans-serif" font-size="54" font-weight="800" letter-spacing="-1.5" fill="#fff">Produktivitas? Gunakan Aturan</text>
<text x="86" y="382" font-family="Arial,sans-serif" font-size="54" font-weight="800" letter-spacing="-1.5" fill="#fff">Satu Fungsi Satu Alat</text><text x="86" y="596" font-family="Arial,sans-serif" font-size="22" font-weight="700" fill="#fdba74">Panduan praktis untuk pengguna Indonesia</text><g transform="translate(830 210)" fill="none" stroke-linecap="round"><circle cx="45" cy="120" r="34" fill="#fff"/><circle cx="190" cy="40" r="34" fill="#f97316"/><circle cx="190" cy="200" r="34" fill="#fff"/><path d="M80 120h48c32 0 28-80 62-80" stroke="#fdba74" stroke-width="14"/><path d="M80 120h48c32 0 28 80 62 80" stroke="#fff" stroke-opacity=".75" stroke-width="14"/></g></svg>